<?xml version="1.0" encoding="UTF-8"?>
<svg width="295px" height="49px" viewBox="0 0 295 49" version="1.1" xmlns="http://www.w3.org/2000/svg" xmlns:xlink="http://www.w3.org/1999/xlink">
    <!-- Generator: Sketch 62 (91390) - https://sketch.com -->
    <title>logo</title>
    <desc>Created with Sketch.</desc>
    <g id="Page-1" stroke="none" stroke-width="1" fill="none" fill-rule="evenodd">
        <g id="logo">
            <path d="M214.7,20.1 L221.7,20.1 L221.7,18.2 L214.7,18.2 C214.4,18.2 214.1,18.1 214,18 L214,9.7 L215.9,9.7 L215.9,7.9 L204.3,7.9 L204.3,9.8 L206.2,9.8 L206.2,18 C206.2,18.2 205.9,18.2 205.7,18.2 L197.1,18.2 C196.8,18.2 196.4,18.1 196.4,17.9 L196.4,9.7 L198.3,9.7 L198.3,7.9 L186.7,7.9 L186.7,9.8 L188.6,9.8 L188.6,18 C188.6,18.2 188.3,18.2 188.1,18.2 L169.1,18.2 L172.9,20.1 L188.1,20.1 C188.3,20.1 188.5,20.2 188.6,20.3 L188.6,44.4 L186.7,44.4 L186.7,48.2 L198.3,48.2 L198.3,44.4 L196.5,44.4 L196.5,20.4 C196.5,20.2 196.8,20.1 197.2,20.1 L205.8,20.1 C206,20.1 206.2,20.2 206.3,20.3 L206.3,43.6 L206.3,44.3 L204.4,44.3 L204.4,48.1 L216,48.1 L216,44.3 L214.1,44.3 L214.1,20.3 C214.1,20.2 214.4,20.1 214.7,20.1 Z" id="Path" fill="#FFFFFF" fill-rule="nonzero"></path>
            <path d="M250,47.2 C242.2,47.2 241.6,39.2 241.6,32.3 C241.6,24.7 242.5,19.2 248.9,19.2 C251.3,19.2 253,20.3 253,22.1 C253,22.8 252,26.1 252,26.8 C252,29.2 254.1,29.8 256.2,29.8 C259,29.8 260.6,28.7 260.6,25.8 C260.6,21.3 255.8,18.3 249.1,18.3 C238.4,18.3 232.5,26.1 232.5,32.7 C232.5,46.5 245.7,48.1 249.2,48.1 C257.6,48.1 260.3,42.8 261.1,39.7 L260.2,39.4 C259.8,41 257.3,47.2 250,47.2 Z" id="Path" fill="#000000" fill-rule="nonzero"></path>
            <path d="M278.2,18.2 C268.9,18.2 261.7,24.4 261.7,32.7 C261.7,41.1 268.9,48.1 278.2,48.1 C287.5,48.1 294.7,41 294.7,32.7 C294.6,24.4 287.5,18.2 278.2,18.2 Z M278.2,47.2 C271.2,47.2 270.8,40 270.8,32.7 C270.8,25.5 271.1,19.2 278.2,19.2 C285.3,19.2 285.6,25.5 285.6,32.7 C285.5,40 285.2,47.2 278.2,47.2 Z" id="Shape" fill="#000000" fill-rule="nonzero"></path>
            <polyline id="Path" fill="#000000" fill-rule="nonzero" points="221.8 20.1 221.8 47.2 221.8 47.2 221.8 48.1 221.8 48.1 230 48.1 230 18.2 221.8 18.2"></polyline>
            <path d="M225.9,13.5 C228.2,13.5 230,11.6 230,9.4 L230,4.1 C230,1.8 228.1,8.8817842e-16 225.9,8.8817842e-16 C223.6,8.8817842e-16 221.8,1.9 221.8,4.1 L221.8,9.4 C221.8,11.7 223.6,13.5 225.9,13.5 Z" id="Path" fill="#000000" fill-rule="nonzero"></path>
            <path d="M68,13.5 C70.3,13.5 72.1,11.6 72.1,9.4 L72.1,4.1 C72.1,1.9 70.3,8.8817842e-16 68,8.8817842e-16 C65.7,8.8817842e-16 63.9,1.9 63.9,4.1 L63.9,9.4 C63.9,11.7 65.7,13.5 68,13.5 Z" id="Path" fill="#000000" fill-rule="nonzero"></path>
            <path d="M152.4,28.8 C152.4,25.6 152.4,18.3 142.1,18.3 C140,18.3 135.7,19.2 133,24 C131.7,21.5 129.9,18.3 123.6,18.3 C117.7,18.3 115.3,22.3 114.2,24 L114.1,24 L114.1,18.3 L90.1,18.3 L90.2,18.3 L89.2,18.3 C82.7,18.3 78.1,22.7 78.1,27.9 C78.1,32.7 81.7,33.8 84.2,34.8 L89.7,36.8 C94.5,38.6 95,40.3 95,42 C95,47.2 90.5,47.2 89,47.2 C82.7,47.2 80.7,42.5 78.6,37.4 L77.7,37.4 L77.7,46.5 L72.1,46.5 L72.1,18.2 L52.8,18.2 C48.5,18.3 46,21.1 44.4,24.5 L44.3,24.5 L44.3,18.2 L36.2,18.2 L36.2,46.4 L31.8,46.4 L31.8,48 L49.7,48 L49.7,46.4 L44.4,46.4 L44.4,29.6 C44.4,23.9 48.2,20.3 50.1,20.3 C51.7,20.3 51.7,21.9 51.7,21.9 C51.7,22.2 51.2,24.7 51.2,25.3 C51.2,27.7 53.3,28.3 55.3,28.3 C58.1,28.3 59.4,26.7 59.4,24 C59.4,22.3 58.8,20.9 57.7,19.9 L63.9,19.9 L63.9,46.6 L59.4,46.6 L59.4,48.2 L88.2,48.2 L88,48.1 C88.5,48.1 88.9,48.2 89.4,48.2 C95.3,48.2 100.9,44.4 100.9,38.5 C100.9,34.3 98.3,32.4 93.5,30.7 L87.8,28.7 C83.2,27.1 82.9,25.1 82.9,23.8 C82.9,20.7 85.9,19.1 88.8,19.1 C94.4,19.1 96,22.8 97.8,27.2 L98.7,27.2 L98.7,19.8 L106.1,19.8 L106.1,46.5 L101.6,46.5 L101.6,48.1 L118.3,48.1 L118.3,46.5 L114.3,46.5 L114.3,30.7 C114.3,26.2 114.8,24.5 116.3,22.7 C117.6,21.2 119.3,20.3 121,20.3 C123.1,20.3 125.1,21.7 125.1,25.6 L125.1,46.4 L121,46.4 L121,48 L137.3,48 L137.3,46.4 L133.3,46.4 L133.3,27.3 C133.3,22.4 137.6,20.4 139.6,20.4 C142.8,20.4 144.1,22.5 144.1,26.3 L144.1,46.5 L140,46.5 L140,48.1 L165,48.1 L165,46.5 L152.3,46.5 L152.3,28.8 L152.4,28.8 Z" id="Path" fill="#000000" fill-rule="nonzero"></path>
            <path d="M16,25.3 L16.8,25.3 C31.2,25.3 38,19.6 38,12.6 C37.9,2.1 26.1,3.55271368e-15 18,3.55271368e-15 L9,3.55271368e-15 L0,3.55271368e-15 L0,1.6 L6.2,1.6 L6.2,46.5 L0,46.5 L0,48.1 L22.2,48.1 L22.2,46.5 L16,46.5 L16,25.3 Z M16,1.6 L16.6,1.6 C24.4,1.6 26.9,5.1 26.9,12.9 C26.9,21.2 23.7,23.6 16,23.6 L16,1.6 Z" id="Shape" fill="#000000" fill-rule="nonzero"></path>
            <path d="M171.6,32.1 C168.2,33.7 164.4,34.8 164.4,40.2 C164.4,42.3 164.6,46.6 168.8,46.6 C171.1,46.6 173.5,44.6 173.5,39.4 L173.5,30.5 L173.4,30.5 C173.3,31 172.9,31.5 171.6,32.1 Z" id="Path"></path>
            <path d="M169.5,18.2 C163.6,18.2 158,20.8 158,25.5 C158,28.5 160.1,28.9 161.9,28.9 C163.1,28.9 166,28.9 166,26.1 C166,25.5 165.6,22.9 165.6,22.4 C165.6,19.9 167.4,19.1 169.4,19.1 C172.7,19.1 173.6,21.5 173.6,23.9 L173.6,28 C173.6,31.4 172,31 164.8,33.2 C160.3,34.5 155.9,36 155.9,41.3 C155.9,46.5 161.2,48 165.5,48 L181.2,48 L181.9,48 L181.9,27.8 C181.8,20.1 176.3,18.2 169.5,18.2 L169.5,18.2 Z M173.6,39.4 C173.6,44.7 171.2,46.6 168.9,46.6 C164.7,46.6 164.5,42.3 164.5,40.2 C164.5,34.8 168.3,33.7 171.7,32.1 C172.9,31.5 173.4,31 173.5,30.5 L173.6,30.5 L173.6,39.4 Z" id="Shape" fill="#000000" fill-rule="nonzero"></path>
            <path d="M175.1,0.2 C172.5,0.2 170.3,2.4 170.3,5 C170.3,11.8 166.3,11.9 161.4,11.9 L160.6,11.9 L160.6,13.5000517 L161.4,13.5000517 C172.7,13.5000517 179.9,13.6 179.9,5 C179.9,2.3 177.8,0.2 175.1,0.2 L175.1,0.2 Z" id="Path" fill="#000000" fill-rule="nonzero"></path>
        </g>
    </g>
</svg>